<svg width="72" height="56" viewBox="0 0 72 56" fill="none" xmlns="http://www.w3.org/2000/svg">
<path d="M57.921 10.5659H42.5942V15.8489H57.921V10.5659Z" fill="#FF4338"/>
<path d="M61.6278 31.6278C61.6278 25.4995 56.6733 20.8152 50.4001 20.8152C42.7367 20.8152 38.4238 26.2391 38.4238 33.424C38.4238 39.9749 42.3803 46.0328 50.5783 46.0328C56.3882 46.0328 60.1664 42.7573 61.2357 38.9535H55.3189C54.5347 40.2919 53.2872 41.3485 50.5783 41.3485C45.9803 41.3485 44.2694 38.5661 44.2337 35.1146H61.4139C61.6278 33.6001 61.6278 32.4378 61.6278 31.6278ZM44.2337 30.9586C44.2337 27.4013 46.8714 25.4995 50.2218 25.4995C53.6793 25.4995 56.103 27.6127 56.103 30.9586H44.2337Z" fill="#FF4338"/>
<path d="M10.6929 15.8489H20.9939V45.4338H26.982V15.8489H37.176V10.5659H10.6929V15.8489Z" fill="#FF4338"/>
<path d="M0 0V56H72V0H0ZM5.34653 50.717V5.28302H66.6535V50.717H5.34653Z" fill="#FF4338"/>
</svg>