<svg width="121" height="28" viewBox="0 0 121 28" fill="none" xmlns="http://www.w3.org/2000/svg">
<path d="M59.4643 0H64.0385V11.2111C65.2755 9.18533 67.5195 8.07532 70.4251 8.07532C73.2444 8.07532 75.2294 9.04658 76.3226 10.6283C77.3007 12.0436 77.5884 13.6254 77.5884 16.2339V27.4727H72.9855V17.7047C72.9855 14.4579 72.0361 11.9881 68.7277 11.9881C65.5345 11.9881 64.0097 14.4579 64.0097 17.7047V27.5005H59.4355V0H59.4643Z" fill="#FF4338"></path>
<path d="M81.3281 8.57482H85.9311V11.2111C87.1393 9.18533 89.412 8.07532 92.3177 8.07532C95.137 8.07532 97.122 9.04658 98.2152 10.6283C99.1933 12.0436 99.481 13.6254 99.481 16.2339V27.4727H94.9068V17.7047C94.9068 14.4579 93.9287 11.9881 90.6491 11.9881C87.4558 11.9881 85.9311 14.4579 85.9311 17.7047V27.5005H81.3281V8.57482Z" fill="#FF4338"></path>
<path d="M118.037 0H105.638V4.16254H118.037V0Z" fill="#FF4338"></path>
<path d="M48.0435 24.0595C44.0734 24.0595 42.4912 21.3122 42.4912 18.0377C42.4912 14.8186 44.2173 12.0159 47.7558 12.0159C50.6326 12.0159 51.8697 13.2091 52.2724 15.0406H56.9042C56.4439 11.5163 53.8259 8.07532 47.6695 8.07532C41.3117 8.07532 37.917 12.9039 37.917 18.0377C37.917 23.1992 41.3404 28 47.727 28C52.9916 28 55.926 25.3637 56.8179 21.8394H52.0711C51.4094 23.227 50.3162 24.0595 48.0435 24.0595Z" fill="#FF4338"></path>
<path d="M35.6442 16.6224C35.6442 11.7939 31.6454 8.07532 26.5534 8.07532C20.3682 8.07532 16.8872 12.3489 16.8872 18.0377C16.8872 23.1992 20.0805 28 26.6972 28C31.3865 28 34.436 25.4192 35.3278 22.4222H30.5234C29.8905 23.4767 28.8836 24.3092 26.6972 24.3092C22.9861 24.3092 21.6052 22.1169 21.5477 19.3974H35.4428C35.6442 18.1764 35.6442 17.2606 35.6442 16.6224ZM21.5765 16.0951C21.5765 13.2924 23.7341 11.7939 26.4096 11.7939C29.2001 11.7939 31.1563 13.4589 31.1563 16.0951H21.5765Z" fill="#FF4338"></path>
<path d="M121 16.6224C121 11.7939 117.001 8.07532 111.909 8.07532C105.724 8.07532 102.214 12.3489 102.214 18.0377C102.214 23.1992 105.408 28 112.024 28C116.714 28 119.763 25.4192 120.655 22.4222H115.879C115.246 23.4767 114.24 24.3092 112.053 24.3092C108.342 24.3092 106.961 22.1169 106.904 19.3974H120.799C121 18.1764 121 17.2606 121 16.6224ZM106.932 16.0951C106.932 13.2924 109.09 11.7939 111.765 11.7939C114.556 11.7939 116.512 13.4589 116.512 16.0951H106.932Z" fill="#FF4338"></path>
<path d="M0 0V4.19029H8.34284V27.5005H13.1759V4.19029H21.4037V0H0Z" fill="#FF4338"></path>
</svg>